<?xml version="1.0" encoding="UTF-8"?>
<svg width="312px" height="90px" viewBox="0 0 312 90" version="1.1" xmlns="http://www.w3.org/2000/svg" xmlns:xlink="http://www.w3.org/1999/xlink">
    <title>EO_Logo_Short</title>
    <g id="Page" stroke="none" stroke-width="1" fill="currentColor" fill-rule="evenodd">
        <path d="M90,45 C90,40.3341014 89.3001152,35.8496544 87.9781106,31.624424 C82.2753456,13.2978111 65.1929724,0 45,0 L45,0 L45,0 C41.1117512,0 37.3531106,0.492511521 33.75,1.42569124 C33.6463134,1.4516129 33.5426267,1.47753456 33.4389401,1.50345622 C32.8168203,1.65898618 32.2206221,1.84043779 31.5985023,2.0218894 C31.4429724,2.07373272 31.2874424,2.1514977 31.1059908,2.20334101 C30.5875576,2.38479263 30.0432028,2.54032258 29.5247696,2.74769585 C29.343318,2.82546083 29.1618664,2.90322581 28.9804147,2.95506912 C28.4879032,3.13652074 27.9953917,3.34389401 27.5028802,3.55126728 C27.2955069,3.62903226 27.0881336,3.73271889 26.8807604,3.83640553 C26.4141705,4.0437788 25.9475806,4.25115207 25.5069124,4.45852535 C25.2476959,4.58813364 25.0144009,4.71774194 24.7551843,4.84735023 C24.3404378,5.02880184 23.9516129,5.21025346 23.562788,5.41762673 C23.3035714,5.57315668 23.0702765,5.70276498 22.8369816,5.83237327 C22.4481567,6.0656682 22.0593318,6.27304147 21.6705069,6.50633641 C21.437212,6.66186636 21.2039171,6.81739631 20.9965438,6.94700461 C20.6077189,7.18029954 20.218894,7.43951613 19.8559908,7.67281106 C19.5708525,7.88018433 19.2857143,8.0875576 19.000576,8.26900922 C18.6895161,8.50230415 18.3784562,8.70967742 18.0673963,8.94297235 C17.7822581,9.15034562 17.4971198,9.40956221 17.1860599,9.64285714 C16.9268433,9.85023041 16.6417051,10.0576037 16.3824885,10.264977 C16.0973502,10.4982719 15.8381336,10.7574885 15.5529954,10.9907834 C15.2937788,11.2240783 15.0086406,11.4573733 14.749424,11.6906682 C14.4642857,11.9498848 14.1791475,12.235023 13.8680876,12.5201613 C13.6607143,12.7275346 13.4014977,12.9608295 13.1941244,13.1682028 C12.8830645,13.4792627 12.5979263,13.7903226 12.2868664,14.1273041 C12.1054147,14.3346774 11.8980415,14.516129 11.6906682,14.749424 C11.40553,15.0604839 11.1203917,15.4233871 10.8093318,15.7603687 C10.6278802,15.9677419 10.4464286,16.1491935 10.2908986,16.3824885 C9.97983871,16.71947 9.69470046,17.1082949 9.40956221,17.4711982 C9.25403226,17.6785714 9.0985023,17.860023 8.94297235,18.0673963 C8.6578341,18.4562212 8.37269585,18.8450461 8.11347926,19.233871 C7.95794931,19.4412442 7.82834101,19.6226959 7.69873272,19.8300691 C7.43951613,20.2448157 7.18029954,20.6595622 6.92108295,21.0483871 C6.765553,21.2557604 6.6359447,21.4631336 6.53225806,21.6705069 C6.27304147,22.1111751 6.01382488,22.5518433 5.75460829,23.0184332 C5.65092166,23.1739631 5.54723502,23.3554147 5.44354839,23.5368664 C5.1843318,24.0034562 4.95103687,24.4700461 4.71774194,24.9625576 C4.63997696,25.1440092 4.53629032,25.3254608 4.45852535,25.4809908 C4.22523041,25.9735023 3.99193548,26.4919355 3.75864055,27.0103687 C3.68087558,27.1658986 3.62903226,27.3214286 3.55126728,27.4769585 C3.31797235,28.0213134 3.11059908,28.5656682 2.90322581,29.110023 C2.85138249,29.2396313 2.79953917,29.3951613 2.74769585,29.5247696 C2.54032258,30.0950461 2.35887097,30.6653226 2.17741935,31.2355991 C2.12557604,31.3652074 2.09965438,31.4948157 2.04781106,31.624424 C1.86635945,32.2206221 1.71082949,32.8168203 1.52937788,33.4130184 C1.50345622,33.5167051 1.4516129,33.6463134 1.42569124,33.75 C1.27016129,34.3721198 1.11463134,34.9942396 0.985023041,35.6163594 C0.959101382,35.7200461 0.933179724,35.8237327 0.907258065,35.9014977 C0.77764977,36.5495392 0.648041475,37.2235023 0.544354839,37.8974654 C0.544354839,37.9752304 0.51843318,38.0529954 0.492511521,38.1307604 C0.388824885,38.8047235 0.311059908,39.4786866 0.233294931,40.1526498 C0.233294931,40.2304147 0.207373272,40.3081797 0.207373272,40.3859447 C0.129608295,41.1117512 0.077764977,41.8634793 0.025921659,42.6152074 C0.025921659,42.641129 0.025921659,42.641129 0.025921659,42.6670507 C0.025921659,43.4187788 0,44.1705069 0,44.9481567 C0,44.9740783 0,44.9740783 0,45 C0,45 0,45.0259217 0,45.0259217 L0,45.0259217 C0,45.0259217 0,45.0518433 0,45.0518433 C0,45.0518433 0,45.0518433 0,45.077765 C0,46.6330645 0.077764977,48.1624424 0.233294931,49.6658986 C0.233294931,49.6918203 0.233294931,49.7177419 0.233294931,49.7436636 C2.5921659,72.3473502 21.7482719,90 45,90 C69.858871,90 90,69.858871 90,45 L90,45 C90,45 90,45 90,45 C90,45 90,45 90,45 C90,45 90,45 90,45 Z M76.6762673,45 C59.1791475,45 45.0259217,59.1791475 45,76.6762673 C45,76.6762673 45,76.6762673 45,76.7021889 C45,59.2050691 30.8208525,45.0259217 13.3237327,45.0259217 C13.3237327,45.0259217 13.3237327,45.0259217 13.2978111,45.0259217 C30.7949309,45.0259217 44.9740783,30.8467742 44.9740783,13.3496544 C44.9740783,13.3496544 44.9740783,13.3496544 44.9740783,13.375576 C45,30.8208525 59.1791475,45 76.6762673,45 C76.6762673,45 76.6762673,45 76.6762673,45 Z M155.529954,0 L155.529954,0 L155.529954,0 L155.529954,0 L155.529954,0 C130.671083,0 110.529954,20.141129 110.529954,45 L110.529954,45 C110.529954,69.858871 130.671083,90 155.529954,90 L155.529954,45 L155.529954,45 L200.529954,45 C200.529954,20.141129 180.388825,0 155.529954,0 Z M221.059908,0 L221.059908,90 L311.059908,90 L311.059908,0 L221.059908,0 Z M266.059908,60.7085253 C257.402074,60.7085253 250.351382,53.6837558 250.351382,45 C250.351382,36.3421659 257.376152,29.2914747 266.059908,29.2914747 C274.743664,29.2914747 281.768433,36.3162442 281.768433,45 C281.768433,53.6837558 274.717742,60.7085253 266.059908,60.7085253 Z" id="EO_Logo_Short" fill="currentColor" fill-rule="nonzero"></path>
    </g>
</svg>